<svg width="136" height="40" viewBox="0 0 136 40" fill="none" xmlns="http://www.w3.org/2000/svg">
<g clip-path="url(#clip0_3371_12708)">
<path d="M31.1263 4.60934L17.0582 0.391068C16.8376 0.317494 16.617 0.292969 16.3965 0.292969C16.1759 0.292969 15.9553 0.317494 15.7347 0.391068L1.6421 4.60934C0.661741 4.90364 0 5.81106 0 6.8411V22.3408C0 24.6461 0.90683 26.976 2.69598 29.2568C3.99495 30.9245 5.7841 32.5676 7.98991 34.1863C11.6662 36.835 15.2936 38.4781 15.4406 38.5517C15.7347 38.6743 16.0533 38.7479 16.3965 38.7479C16.7396 38.7479 17.0337 38.6743 17.3523 38.5517C17.4994 38.4781 21.1267 36.835 24.803 34.1863C27.0088 32.5676 28.798 30.9245 30.097 29.2568C31.8861 26.976 32.7929 24.6461 32.7929 22.3408V6.8411C32.7929 5.81106 32.1312 4.90364 31.1508 4.60934H31.1263ZM31.5185 22.3408C31.5185 24.3518 30.7097 26.4119 29.0921 28.472C27.8666 30.0416 26.1755 31.6112 24.0432 33.1562C20.4895 35.7313 16.9602 37.3255 16.8131 37.399C16.6661 37.4481 16.519 37.4971 16.372 37.4971C16.2249 37.4971 16.0779 37.4726 15.9308 37.399C15.7837 37.3255 12.279 35.7559 8.70067 33.1562C6.56839 31.6112 4.87727 30.0416 3.65183 28.472C2.03424 26.4119 1.22545 24.3518 1.22545 22.3408V6.8411C1.22545 6.37513 1.51955 5.9582 1.98522 5.83558L16.0779 1.61731C16.2739 1.56826 16.4945 1.56826 16.6906 1.61731L30.7587 5.83558C31.1999 5.9582 31.5185 6.37513 31.5185 6.8411V22.3408Z" fill="#F4B147"/>
<path d="M31.1263 4.60934L17.0582 0.391068C16.8376 0.317494 16.617 0.292969 16.3965 0.292969C16.1759 0.292969 15.9553 0.317494 15.7347 0.391068L1.6421 4.60934C0.661741 4.90364 0 5.81106 0 6.8411V22.3408C0 24.6461 0.90683 26.976 2.69598 29.2568C3.99495 30.9245 5.7841 32.5676 7.98991 34.1863C11.6662 36.835 15.2936 38.4781 15.4406 38.5517C15.7347 38.6743 16.0533 38.7479 16.3965 38.7479C16.7396 38.7479 17.0337 38.6743 17.3523 38.5517C17.4994 38.4781 21.1267 36.835 24.803 34.1863C27.0088 32.5676 28.798 30.9245 30.097 29.2568C31.8861 26.976 32.7929 24.6461 32.7929 22.3408V6.8411C32.7929 5.81106 32.1312 4.90364 31.1508 4.60934H31.1263ZM31.5185 22.3408C31.5185 24.3518 30.7097 26.4119 29.0921 28.472C27.8666 30.0416 26.1755 31.6112 24.0432 33.1562C20.4895 35.7313 16.9602 37.3255 16.8131 37.399C16.6661 37.4481 16.519 37.4971 16.372 37.4971C16.2249 37.4971 16.0779 37.4726 15.9308 37.399C15.7837 37.3255 12.279 35.7559 8.70067 33.1562C6.56839 31.6112 4.87727 30.0416 3.65183 28.472C2.03424 26.4119 1.22545 24.3518 1.22545 22.3408V6.8411C1.22545 6.37513 1.51955 5.9582 1.98522 5.83558L16.0779 1.61731C16.2739 1.56826 16.4945 1.56826 16.6906 1.61731L30.7587 5.83558C31.1999 5.9582 31.5185 6.37513 31.5185 6.8411V22.3408Z" fill="url(#paint0_linear_3371_12708)" fill-opacity="0.46"/>
<path d="M39.9258 12.2852H41.8375V25.97H39.9258V12.2852Z" fill="#090C34"/>
<path d="M41.813 12.2852H39.9258V25.97H41.813V12.2852Z" fill="#090C34"/>
<mask id="mask0_3371_12708" style="mask-type:luminance" maskUnits="userSpaceOnUse" x="39" y="12" width="3" height="14">
<path d="M41.813 12.2852H39.9258V25.97H41.813V12.2852Z" fill="white"/>
</mask>
<g mask="url(#mask0_3371_12708)">
<path d="M38.1133 25.676L39.976 12.0156L43.6768 12.5061L41.7896 26.191L38.1133 25.676Z" fill="#090C34"/>
</g>
<path d="M39.9766 24.082H47.3537V25.995H39.9766V24.082Z" fill="#090C34"/>
<path d="M47.303 24.082H39.9258V25.9704H47.303V24.082Z" fill="#090C34"/>
<mask id="mask1_3371_12708" style="mask-type:luminance" maskUnits="userSpaceOnUse" x="39" y="24" width="9" height="2">
<path d="M47.303 24.082H39.9258V25.9704H47.303V24.082Z" fill="white"/>
</mask>
<g mask="url(#mask1_3371_12708)">
<path d="M39.707 25.9699L40.0992 23.125L47.5989 24.155L47.2068 26.9999L39.707 25.9699Z" fill="#090C34"/>
</g>
<path d="M77.668 12.9453H88.2803V14.8337H77.668V12.9453Z" fill="#090C34"/>
<path d="M88.2803 12.9219H77.668V14.8103H88.2803V12.9219Z" fill="#090C34"/>
<mask id="mask2_3371_12708" style="mask-type:luminance" maskUnits="userSpaceOnUse" x="77" y="12" width="12" height="3">
<path d="M88.2803 12.9219H77.668V14.8103H88.2803V12.9219Z" fill="white"/>
</mask>
<g mask="url(#mask2_3371_12708)">
<path d="M77.4219 14.8098L77.863 11.5234L88.5489 12.9949L88.1078 16.2813L77.4219 14.8098Z" fill="#090C34"/>
</g>
<path fill-rule="evenodd" clip-rule="evenodd" d="M52.3514 16.3555C55.1699 16.3555 57.3022 18.5382 57.3022 21.2604C57.3022 23.9827 55.1699 26.1899 52.3514 26.1899C49.5329 26.1899 47.3516 23.9827 47.3516 21.2604C47.3516 18.5382 49.5329 16.3555 52.3514 16.3555ZM52.3514 24.3751C54.0915 24.3751 55.415 23.0017 55.415 21.285C55.415 19.5682 54.0915 18.1213 52.3514 18.1213C50.6113 18.1213 49.2142 19.5437 49.2142 21.285C49.2142 23.0262 50.5867 24.3751 52.3514 24.3751Z" fill="#090C34"/>
<path d="M52.3279 16.3555C55.1465 16.3555 57.3033 18.5382 57.3033 21.2604C57.3033 23.9827 55.171 26.1899 52.3279 26.1899C49.4849 26.1899 47.3281 23.9827 47.3281 21.2604C47.3281 18.5382 49.5094 16.3555 52.3279 16.3555ZM52.3279 24.3751C54.0681 24.3751 55.3916 23.0017 55.3916 21.285C55.3916 19.5682 54.0681 18.1458 52.3279 18.1458C50.5878 18.1458 49.2398 19.5682 49.2398 21.285C49.2398 23.0017 50.6123 24.3751 52.3279 24.3751Z" fill="#090C34"/>
<mask id="mask3_3371_12708" style="mask-type:luminance" maskUnits="userSpaceOnUse" x="47" y="16" width="11" height="11">
<path d="M52.3279 16.3555C55.1465 16.3555 57.3033 18.5382 57.3033 21.2604C57.3033 23.9827 55.171 26.1899 52.3279 26.1899C49.4849 26.1899 47.3281 23.9827 47.3281 21.2604C47.3281 18.5382 49.5094 16.3555 52.3279 16.3555ZM52.3279 24.3751C54.0681 24.3751 55.3916 23.0017 55.3916 21.285C55.3916 19.5682 54.0681 18.1458 52.3279 18.1458C50.5878 18.1458 49.2398 19.5682 49.2398 21.285C49.2398 23.0017 50.6123 24.3751 52.3279 24.3751Z" fill="white"/>
</mask>
<g mask="url(#mask3_3371_12708)">
<path d="M46.0273 25.9949L47.5224 15.0078L58.6494 16.5284L57.1299 27.5155L46.0273 25.9949Z" fill="#090C34"/>
</g>
<path d="M63.4085 16.3594C60.7371 16.3594 58.5312 18.5666 58.5312 21.2643C58.5312 23.9621 60.737 26.2184 63.433 26.1693C65.1487 26.1693 66.7172 25.4336 67.5995 23.7168L66.031 22.8585C65.4673 23.8885 64.5359 24.4035 63.433 24.4035C61.7909 24.4035 60.4429 22.9811 60.4429 21.2643C60.4429 19.5476 61.7909 18.1742 63.433 18.1742C65.0751 18.1742 65.4918 18.6892 66.031 19.7193L67.5995 18.8364C66.7172 17.1442 65.1487 16.3839 63.433 16.3839H63.4085V16.3594Z" fill="#090C34"/>
<path d="M63.384 16.3594C60.7125 16.3594 58.5312 18.5666 58.5312 21.2643C58.5312 23.9621 60.7125 26.2184 63.433 26.1693C65.1487 26.1693 66.7172 25.3845 67.575 23.7168L66.0065 22.8585C65.4428 23.8885 64.5114 24.4035 63.4085 24.4035C61.7664 24.4035 60.4184 22.9811 60.4184 21.2643C60.4184 19.5476 61.7664 18.1742 63.4085 18.1742C65.0506 18.1742 65.4673 18.6892 66.0065 19.7193L67.575 18.8364C66.7172 17.1442 65.1487 16.3839 63.433 16.3839H63.384V16.3594Z" fill="#090C34"/>
<mask id="mask4_3371_12708" style="mask-type:luminance" maskUnits="userSpaceOnUse" x="58" y="16" width="10" height="11">
<path d="M63.384 16.3594C60.7125 16.3594 58.5312 18.5666 58.5312 21.2643C58.5312 23.9621 60.7125 26.2184 63.433 26.1693C65.1487 26.1693 66.7172 25.3845 67.575 23.7168L66.0065 22.8585C65.4428 23.8885 64.5114 24.4035 63.4085 24.4035C61.7664 24.4035 60.4184 22.9811 60.4184 21.2643C60.4184 19.5476 61.7664 18.1742 63.4085 18.1742C65.0506 18.1742 65.4673 18.6892 66.0065 19.7193L67.575 18.8364C66.7172 17.1442 65.1487 16.3839 63.433 16.3839H63.384V16.3594Z" fill="white"/>
</mask>
<g mask="url(#mask4_3371_12708)">
<path d="M57.207 26.0218L58.7021 15.1328L68.9223 16.5062L67.4273 27.3952L57.207 26.0218Z" fill="#090C34"/>
</g>
<path d="M75.8315 16.5792L72.8414 19.841C72.8169 19.841 72.7924 19.841 72.7924 19.8901C72.6208 20.0863 72.4493 20.2825 72.3513 20.4787C72.2287 20.6994 72.1797 20.9692 72.1797 21.2144C72.1797 21.4597 72.2287 21.7294 72.3513 21.9502C72.3758 22.0237 72.4738 22.1463 72.5228 22.2199C72.5963 22.3671 72.6944 22.5142 72.8169 22.6614L75.807 25.9232H78.1354L75.0962 22.5387L74.1159 21.4597C73.9933 21.3861 73.9198 21.288 73.9198 21.2144C73.9198 21.1408 73.9933 21.0182 74.1159 20.9446L75.1208 19.8655L78.1599 16.5547H75.8315V16.5792Z" fill="#090C34"/>
<path d="M75.8315 16.5792L72.8414 19.841C72.8414 19.841 72.8169 19.841 72.7924 19.8901C72.6208 20.0617 72.4493 20.2579 72.3513 20.4787C72.2532 20.6994 72.1797 20.9446 72.1797 21.2144C72.1797 21.4842 72.2287 21.7294 72.3513 21.9502C72.3758 22.0237 72.4738 22.1463 72.5228 22.2199C72.5963 22.3671 72.7189 22.4897 72.8169 22.6368L75.807 25.8986H78.1354L75.0962 22.5387L74.1159 21.4597C73.9933 21.3861 73.9443 21.288 73.9443 21.1899C73.9443 21.0918 73.9933 21.0182 74.1159 20.9201L75.1208 19.841L78.1599 16.5547H75.8315V16.5792Z" fill="#090C34"/>
<mask id="mask5_3371_12708" style="mask-type:luminance" maskUnits="userSpaceOnUse" x="72" y="16" width="7" height="10">
<path d="M75.8315 16.5792L72.8414 19.841C72.8414 19.841 72.8169 19.841 72.7924 19.8901C72.6208 20.0617 72.4493 20.2579 72.3513 20.4787C72.2532 20.6994 72.1797 20.9446 72.1797 21.2144C72.1797 21.4842 72.2287 21.7294 72.3513 21.9502C72.3758 22.0237 72.4738 22.1463 72.5228 22.2199C72.5963 22.3671 72.7189 22.4897 72.8169 22.6368L75.807 25.8986H78.1354L75.0962 22.5387L74.1159 21.4597C73.9933 21.3861 73.9443 21.288 73.9443 21.1899C73.9443 21.0918 73.9933 21.0182 74.1159 20.9201L75.1208 19.841L78.1599 16.5547H75.8315V16.5792Z" fill="white"/>
</mask>
<g mask="url(#mask5_3371_12708)">
<path d="M70.9062 25.7785L72.2788 15.7969L79.3863 16.7779L78.0138 26.7595L70.9062 25.7785Z" fill="#090C34"/>
</g>
<path d="M69.6055 12.2852H71.5172V25.97H69.6055V12.2852Z" fill="#090C34"/>
<path d="M71.5172 12.2852H69.6055V25.97H71.5172V12.2852Z" fill="#090C34"/>
<mask id="mask6_3371_12708" style="mask-type:luminance" maskUnits="userSpaceOnUse" x="69" y="12" width="3" height="14">
<path d="M71.5172 12.2852H69.6055V25.97H71.5172V12.2852Z" fill="white"/>
</mask>
<g mask="url(#mask6_3371_12708)">
<path d="M67.7422 25.677L69.6294 11.9922L73.3302 12.4827L71.443 26.1921L67.7422 25.677Z" fill="#090C34"/>
</g>
<path d="M82.0547 13.0703H83.9419V25.9704H82.0547V13.0703Z" fill="#090C34"/>
<path d="M83.895 13.0703H82.0078V25.9458H83.895V13.0703Z" fill="#090C34"/>
<mask id="mask7_3371_12708" style="mask-type:luminance" maskUnits="userSpaceOnUse" x="82" y="13" width="2" height="13">
<path d="M83.895 13.0703H82.0078V25.9458H83.895V13.0703Z" fill="white"/>
</mask>
<g mask="url(#mask7_3371_12708)">
<path d="M80.2656 25.7243L82.0548 12.8242L85.6331 13.2902L83.8684 26.2148L80.2656 25.7243Z" fill="#090C34"/>
</g>
<path d="M89.9258 12.2862V25.9711H91.8375V21.3114C91.8375 19.472 92.9894 18.1477 94.656 18.1477C96.3226 18.1477 97.3275 19.5946 97.3275 21.2378V25.9466H99.2392V21.0416C99.2392 18.1722 97.6951 16.3328 94.9256 16.3328C92.1561 16.3328 92.5482 16.8233 91.8375 17.6081V12.2617H89.9258V12.2862Z" fill="#090C34"/>
<path d="M89.9258 12.2862V25.9711H91.813V21.3114C91.813 19.472 92.9649 18.1477 94.6315 18.1477C96.2981 18.1477 97.303 19.5946 97.303 21.2378V25.9466H99.1902V21.0416C99.1902 18.1967 97.6461 16.3328 94.9011 16.3328C92.1561 16.3328 92.5237 16.8233 91.813 17.6081V12.2617H89.9258V12.2862Z" fill="#090C34"/>
<mask id="mask8_3371_12708" style="mask-type:luminance" maskUnits="userSpaceOnUse" x="89" y="12" width="11" height="14">
<path d="M89.9258 12.2862V25.9711H91.813V21.3114C91.813 19.472 92.9649 18.1477 94.6315 18.1477C96.2981 18.1477 97.303 19.5946 97.303 21.2378V25.9466H99.1902V21.0416C99.1902 18.1967 97.6461 16.3328 94.9011 16.3328C92.1561 16.3328 92.5237 16.8233 91.813 17.6081V12.2617H89.9258V12.2862Z" fill="white"/>
</mask>
<g mask="url(#mask8_3371_12708)">
<path d="M88.1133 25.6776L90.0985 11.0117L101.078 12.5323L99.0688 27.1981L88.1133 25.6776Z" fill="#090C34"/>
</g>
<path d="M101.641 20.3793V25.9709H103.528V20.4528C103.528 19.0795 104.312 18.2211 105.587 18.2211C106.861 18.2211 106.64 18.3682 107.082 18.638V16.7496C106.616 16.5289 106.003 16.4062 105.39 16.4062C102.964 16.4062 101.665 18.0985 101.665 20.3547" fill="#090C34"/>
<path d="M101.641 20.3793V25.9709H103.528V20.4528C103.528 19.0795 104.312 18.2211 105.538 18.2211C106.763 18.2211 106.591 18.3682 107.057 18.638V16.7496C106.591 16.5289 105.979 16.4062 105.366 16.4062C102.94 16.4062 101.641 18.0985 101.641 20.4038C101.641 20.3874 101.641 20.3793 101.641 20.3793Z" fill="#090C34"/>
<mask id="mask9_3371_12708" style="mask-type:luminance" maskUnits="userSpaceOnUse" x="101" y="16" width="7" height="10">
<path d="M101.641 20.3793V25.9709H103.528V20.4528C103.528 19.0795 104.312 18.2211 105.538 18.2211C106.763 18.2211 106.591 18.3682 107.057 18.638V16.7496C106.591 16.5289 105.979 16.4062 105.366 16.4062C102.94 16.4062 101.641 18.0985 101.641 20.4038C101.641 20.3874 101.641 20.3793 101.641 20.3793Z" fill="white"/>
</mask>
<g mask="url(#mask9_3371_12708)">
<path d="M100.34 25.7761L101.712 15.6719L108.33 16.5548L106.957 26.6835L100.34 25.7761Z" fill="#090C34"/>
</g>
<path fill-rule="evenodd" clip-rule="evenodd" d="M112.276 16.332C115.095 16.332 116.859 18.3921 116.859 20.9917V21.7765H109.359C109.58 23.3707 110.805 24.5233 112.497 24.5233C114.188 24.5233 114.653 24.0328 115.217 22.9783L116.688 23.714C115.854 25.3081 114.359 26.1665 112.521 26.1665C109.703 26.1665 107.57 24.1064 107.57 21.237C107.57 18.3676 109.482 16.332 112.301 16.332H112.276ZM109.458 20.5503H114.972C114.923 19.0543 113.82 18.0242 112.252 18.0242C110.683 18.0242 109.654 19.1279 109.458 20.5503Z" fill="#090C34"/>
<path d="M112.278 16.332C115.097 16.332 116.861 18.3921 116.861 20.9917V21.7765H109.362C109.582 23.3707 110.808 24.5233 112.45 24.5233C114.092 24.5233 114.631 24.0328 115.195 23.0028L116.641 23.7385C115.807 25.3326 114.312 26.191 112.499 26.191C109.656 26.191 107.523 24.1064 107.523 21.237C107.523 18.3676 109.435 16.332 112.254 16.332H112.278ZM109.46 20.5503H114.999C114.925 19.0543 113.847 18.0242 112.278 18.0242C110.71 18.0242 109.656 19.1279 109.484 20.5503H109.46Z" fill="#090C34"/>
<mask id="mask10_3371_12708" style="mask-type:luminance" maskUnits="userSpaceOnUse" x="107" y="16" width="10" height="11">
<path d="M112.278 16.332C115.097 16.332 116.861 18.3921 116.861 20.9917V21.7765H109.362C109.582 23.3707 110.808 24.5233 112.45 24.5233C114.092 24.5233 114.631 24.0328 115.195 23.0028L116.641 23.7385C115.807 25.3326 114.312 26.191 112.499 26.191C109.656 26.191 107.523 24.1064 107.523 21.237C107.523 18.3676 109.435 16.332 112.254 16.332H112.278ZM109.46 20.5503H114.999C114.925 19.0543 113.847 18.0242 112.278 18.0242C110.71 18.0242 109.656 19.1279 109.484 20.5503H109.46Z" fill="white"/>
</mask>
<g mask="url(#mask10_3371_12708)">
<path d="M106.223 25.9721L107.718 15.0586L118.183 16.5056L116.688 27.4191L106.223 25.9721Z" fill="#090C34"/>
</g>
<path fill-rule="evenodd" clip-rule="evenodd" d="M123.206 16.3594C126.024 16.3594 128.181 18.4685 128.181 21.2643V25.9731H126.392V24.3054C125.706 25.4581 124.456 26.1938 122.936 26.1938C120.216 26.1938 118.23 23.9866 118.23 21.2643C118.23 18.5421 120.387 16.3594 123.206 16.3594ZM123.206 24.379C124.946 24.379 126.294 23.0056 126.294 21.2889C126.294 19.5721 124.946 18.1252 123.206 18.1252C121.466 18.1252 120.118 19.5476 120.118 21.2889C120.118 23.0301 121.466 24.379 123.206 24.379Z" fill="#090C34"/>
<path d="M123.207 16.3594C126.025 16.3594 128.182 18.4685 128.182 21.2643V25.9731H126.393V24.3299C125.682 25.4581 124.457 26.2184 122.913 26.2184C120.192 26.2184 118.207 24.0111 118.207 21.2889C118.207 18.5666 120.364 16.3839 123.182 16.3839H123.207C123.207 16.3676 123.207 16.3594 123.207 16.3594ZM123.207 24.379C124.947 24.379 126.295 23.0056 126.295 21.2889C126.295 19.5721 124.947 18.1497 123.207 18.1497C121.467 18.1497 120.119 19.5721 120.119 21.2889C120.119 23.0056 121.442 24.379 123.207 24.379Z" fill="#090C34"/>
<mask id="mask11_3371_12708" style="mask-type:luminance" maskUnits="userSpaceOnUse" x="118" y="16" width="11" height="11">
<path d="M123.207 16.3594C126.025 16.3594 128.182 18.4685 128.182 21.2643V25.9731H126.393V24.3299C125.682 25.4581 124.457 26.2184 122.913 26.2184C120.192 26.2184 118.207 24.0111 118.207 21.2889C118.207 18.5666 120.364 16.3839 123.182 16.3839H123.207C123.207 16.3676 123.207 16.3594 123.207 16.3594ZM123.207 24.379C124.947 24.379 126.295 23.0056 126.295 21.2889C126.295 19.5721 124.947 18.1497 123.207 18.1497C121.467 18.1497 120.119 19.5721 120.119 21.2889C120.119 23.0056 121.442 24.379 123.207 24.379Z" fill="white"/>
</mask>
<g mask="url(#mask11_3371_12708)">
<path d="M116.883 25.9988L118.402 15.0117L129.529 16.5323L128.01 27.5194L116.883 25.9988Z" fill="#090C34"/>
</g>
<path d="M130.511 14.1758V16.5792H128.648V18.2469H130.511V22.5878C130.511 24.746 131.761 26.2175 134.089 26.2175C136.418 26.2175 135.535 25.9967 136.026 25.6534V23.9367C135.56 24.231 134.898 24.5007 134.285 24.5007C133.158 24.5007 132.423 23.765 132.423 22.5387V18.2469H136.026V16.6037H132.423V14.1758H130.511Z" fill="#090C34"/>
<path d="M130.511 14.1758V16.6037H128.648V18.2469H130.511V22.5878C130.511 24.7215 131.761 26.2175 134.089 26.2175C136.418 26.2175 135.535 25.9967 136.001 25.7025V23.9612C135.535 24.3045 134.874 24.5253 134.261 24.5253C133.134 24.5253 132.398 23.814 132.398 22.5878V18.296H136.001V16.6528H132.398V14.2248H130.511C130.511 14.2085 130.511 14.2003 130.511 14.2003V14.1758Z" fill="#090C34"/>
<mask id="mask12_3371_12708" style="mask-type:luminance" maskUnits="userSpaceOnUse" x="128" y="14" width="8" height="13">
<path d="M130.511 14.1758V16.6037H128.648V18.2469H130.511V22.5878C130.511 24.7215 131.761 26.2175 134.089 26.2175C136.418 26.2175 135.535 25.9967 136.001 25.7025V23.9612C135.535 24.3045 134.874 24.5253 134.261 24.5253C133.134 24.5253 132.398 23.814 132.398 22.5878V18.296H136.001V16.6528H132.398V14.2248H130.511C130.511 14.2085 130.511 14.2003 130.511 14.2003V14.1758Z" fill="white"/>
</mask>
<g mask="url(#mask12_3371_12708)">
<path d="M127.031 25.9738L128.796 13.1719L137.619 14.3736L135.854 27.2001L127.031 25.9738Z" fill="#090C34"/>
</g>
<path d="M16.3955 36.173C15.8318 35.9032 12.6456 34.4072 9.48397 32.1019C7.44973 30.6304 5.85665 29.1344 4.68022 27.6629C3.25871 25.848 2.52344 24.0332 2.52344 22.3165V7.01297L16.371 2.84375L30.2185 7.01297V22.341C30.2185 24.0577 29.4832 25.8726 28.0617 27.6874C26.9098 29.1589 25.2922 30.6549 23.258 32.1264C20.0473 34.4563 16.9102 35.9277 16.3465 36.1975L16.3955 36.173Z" fill="#F4B147"/>
<path d="M16.3955 36.173C15.8318 35.9032 12.6456 34.4072 9.48397 32.1019C7.44973 30.6304 5.85665 29.1344 4.68022 27.6629C3.25871 25.848 2.52344 24.0332 2.52344 22.3165V7.01297L16.371 2.84375L30.2185 7.01297V22.341C30.2185 24.0577 29.4832 25.8726 28.0617 27.6874C26.9098 29.1589 25.2922 30.6549 23.258 32.1264C20.0473 34.4563 16.9102 35.9277 16.3465 36.1975L16.3955 36.173Z" fill="url(#paint1_linear_3371_12708)" fill-opacity="0.46"/>
<path d="M12.2813 21.5801C12.5264 24.2778 14.3401 27.7358 16.0312 29.7223C16.1782 29.894 16.4478 29.9185 16.6194 29.7468C16.791 29.5997 16.8155 29.3299 16.6684 29.1582C15.0753 27.2943 13.3352 24.0325 13.1146 21.482C12.8695 18.7842 14.5361 17.3373 16.1537 17.1165C16.6194 17.0675 17.0606 17.092 17.4772 17.1901C17.6978 17.2392 17.8939 17.3127 18.0899 17.4108C19.2173 17.9259 20.0261 19.005 20.2222 20.2557C20.5163 22.1441 21.3006 23.6401 22.526 24.7192C22.6976 24.8909 22.9672 24.8419 23.1143 24.6702C23.2858 24.4985 23.2368 24.2287 23.0652 24.0816C21.9869 23.1251 21.3006 21.8008 21.031 20.1331C20.7614 18.588 19.781 17.2637 18.4331 16.6506C17.6978 16.3072 16.8645 16.1846 16.0557 16.2827C14.046 16.5525 12.0117 18.2937 12.3058 21.5555L12.2813 21.5801Z" fill="#090C34"/>
<path d="M19.8308 28.2512C19.9778 28.3984 20.2474 28.3984 20.419 28.2512C20.517 28.1776 20.5415 28.0795 20.5415 27.9569C20.5415 27.8343 20.4925 27.7362 20.3945 27.6626C18.6788 26.0685 17.2818 22.5369 17.0367 20.8202C17.0122 20.6485 16.8897 20.5014 16.7181 20.4523C16.6446 20.4523 16.6201 20.4278 16.5711 20.4523C16.473 20.4523 16.375 20.5259 16.3015 20.624C16.2279 20.6976 16.2034 20.8202 16.2279 20.9183C16.4485 22.7822 17.87 26.4854 19.8308 28.2757V28.2512Z" fill="#090C34"/>
<path d="M18.1884 29.2083C18.3355 29.331 18.6296 29.331 18.7767 29.1593C18.8747 29.0857 18.8992 28.9876 18.8992 28.865C18.8992 28.7424 18.8502 28.6443 18.7522 28.5707C17.2081 27.1483 15.1984 23.6167 15.0268 21.2868C14.9043 19.7663 15.615 19.1286 16.3748 19.0305C16.5709 19.0305 16.7669 19.0305 16.963 19.0551C17.6493 19.2267 18.1394 19.7663 18.262 20.5511C18.4826 21.9245 19.3649 24.941 21.154 26.5842C21.3011 26.7313 21.5952 26.7313 21.7422 26.5842C21.9138 26.4125 21.8893 26.1427 21.7422 25.9956C20.2472 24.5977 19.3649 21.8999 19.1198 20.453C18.9237 19.3248 18.2375 18.5155 17.1836 18.2703C16.8895 18.1967 16.5464 18.1722 16.2768 18.1967C15.1248 18.3438 14.0219 19.3984 14.1935 21.3849C14.4141 23.8865 16.5218 27.6633 18.1884 29.1838V29.2083Z" fill="#090C34"/>
<path d="M10.3678 21.7265C10.5394 23.5659 11.2992 25.7731 12.5246 27.9558C12.6472 28.1766 12.8923 28.2256 13.0883 28.1275C13.3089 28.0294 13.3824 27.7596 13.2599 27.5634C12.108 25.4788 11.3727 23.3942 11.2257 21.6775C10.907 17.8761 13.3579 15.5708 15.9314 15.2274C16.6176 15.1293 17.3039 15.1784 17.9656 15.3501C18.2842 15.4236 18.6028 15.5217 18.9215 15.6934C20.6371 16.4782 21.7645 17.8026 22.1321 19.4702V19.5193C22.3037 20.3041 22.5243 21.2851 23.3331 21.7756C23.5046 21.8982 23.7742 21.8491 23.8968 21.6284C24.0193 21.4567 23.9703 21.187 23.7497 21.0644C23.235 20.7701 23.088 20.0588 22.9409 19.3721V19.2986C22.4998 17.3856 21.2008 15.8651 19.2401 14.9331C18.1617 14.4426 16.9853 14.271 15.8088 14.4181C12.8187 14.786 9.97571 17.4347 10.3924 21.751L10.3678 21.7265Z" fill="#090C34"/>
<path d="M8.4072 21.8767C8.48073 22.6369 8.62778 23.4463 8.84836 24.2801C8.89738 24.5008 9.16698 24.648 9.38756 24.5744C9.60814 24.5254 9.73069 24.2801 9.68167 24.0594C9.4856 23.2746 9.33854 22.5389 9.26502 21.8031C8.82386 16.8491 12.2306 13.7099 15.6618 13.2685C16.5687 13.1458 17.4755 13.2194 18.3823 13.4401C18.8235 13.5628 19.2401 13.7099 19.6568 13.9061C21.495 14.7645 22.8184 16.2114 23.5047 18.2715C23.6027 18.4923 23.8478 18.6149 24.0439 18.5168C24.1419 18.4677 24.24 18.3942 24.289 18.2961C24.338 18.198 24.338 18.0753 24.289 17.9772C23.5292 15.7455 22.0342 14.0533 19.9754 13.1213C19.5097 12.9006 19.0196 12.7289 18.5294 12.6308C17.549 12.3856 16.4951 12.3365 15.4903 12.4591C11.6914 12.9251 7.89252 16.3831 8.3827 21.8767H8.4072Z" fill="#090C34"/>
<path d="M21.8641 10.2266C21.9622 10.0059 21.8641 9.76062 21.6436 9.66252C20.7858 9.29464 19.9525 9.00035 19.1191 8.77962C14.1929 7.52886 11.0557 9.61347 9.9283 10.5454C9.83027 10.619 9.78125 10.7171 9.78125 10.8397C9.78125 10.9623 9.83027 11.0604 9.90379 11.1585C10.0508 11.3302 10.3204 11.3547 10.492 11.2076C11.5214 10.3492 14.4134 8.4608 18.9231 9.58894C19.6829 9.78514 20.5162 10.0549 21.3004 10.4228C21.4965 10.5209 21.7416 10.4228 21.8396 10.2021L21.8641 10.2266Z" fill="#090C34"/>
<path d="M7.72203 16.038C7.77105 16.1361 7.84458 16.2342 7.94261 16.2833H8.04065C8.21221 16.3568 8.43279 16.2833 8.50632 16.0871C9.85431 13.4874 12.1827 11.8197 14.9522 11.4028C16.1776 11.2311 17.4031 11.2802 18.6285 11.5745C20.2706 11.9914 21.7656 12.8253 22.9666 14.0515C23.1381 14.2232 23.4077 14.2232 23.5793 14.0515C23.7509 13.8798 23.7509 13.61 23.5793 13.4384C22.2803 12.1386 20.6382 11.2066 18.8246 10.7406C17.5011 10.3973 16.1776 10.3482 14.8296 10.5444C11.7415 11.0104 9.24158 12.8253 7.74654 15.6701C7.69752 15.7682 7.67301 15.8909 7.72203 15.989V16.038Z" fill="#090C34"/>
</g>
<defs>
<linearGradient id="paint0_linear_3371_12708" x1="32.7929" y1="40.3579" x2="-3.83591" y2="26.093" gradientUnits="userSpaceOnUse">
<stop stop-color="white" stop-opacity="0"/>
<stop offset="1" stop-color="white"/>
</linearGradient>
<linearGradient id="paint1_linear_3371_12708" x1="30.2185" y1="37.5939" x2="-0.929003" y2="25.7827" gradientUnits="userSpaceOnUse">
<stop stop-color="white" stop-opacity="0"/>
<stop offset="1" stop-color="white"/>
</linearGradient>
<clipPath id="clip0_3371_12708">
<rect width="136" height="40" fill="white"/>
</clipPath>
</defs>
</svg>
